<svg id="Group_75" data-name="Group 75" xmlns="http://www.w3.org/2000/svg" xmlns:xlink="http://www.w3.org/1999/xlink" width="841" height="270.766" viewBox="0 0 841 270.766">
  <defs>
    <clipPath id="clip-path">
      <rect id="Rectangle_1" data-name="Rectangle 1" width="841" height="270.765" fill="#f0eeea"/>
    </clipPath>
  </defs>
  <g id="Group_1" data-name="Group 1" clip-path="url(#clip-path)">
    <path id="Path_1" data-name="Path 1" d="M15.323,252.954Q-.009,235.954,0,204.187v-14.95H38.867v17.939q0,25.418,21.3,25.414,10.46,0,15.884-6.169t5.419-19.995q0-16.439-7.475-28.963T46.34,147.377q-25.42-22.426-35.5-40.551T.746,65.9q0-31.018,15.7-48.022T62.038.873q29.516,0,44.661,17.008t15.137,48.769V77.487H82.967V64.036q0-13.452-5.233-19.624T62.413,38.247q-20.561,0-20.556,25.039a49.386,49.386,0,0,0,7.662,26.538q7.656,12.328,27.843,29.9,25.787,22.426,35.506,40.737t9.716,42.979q0,32.145-15.884,49.334T60.541,269.961q-29.9,0-45.218-17.007M140.52,4.613h41.11V228.853h67.646v37.37H140.52Zm122.956,0H375.6V41.985H304.585v69.141h56.437V148.5H304.585v80.352H375.6v37.37H263.477Zm130.053,0H445.1L485.092,161.2h.749V4.613h36.625V266.223h-42.23L430.9,75.25h-.748V266.223H393.53Zm153.972,0h62.788q30.638,0,45.968,16.444T671.58,69.268v132.3q0,31.765-15.323,48.212t-45.968,16.442H547.5ZM609.54,228.853q10.092,0,15.51-5.982t5.419-19.434V67.4q0-13.455-5.419-19.434t-15.51-5.982H588.611V228.853ZM693.629,4.613h60.918q31.762,0,46.34,14.76t14.578,45.412V80.852q0,40.744-26.911,51.575v.748q14.946,4.485,21.115,18.313t6.168,37v45.971a175.307,175.307,0,0,0,.746,18.123,45.282,45.282,0,0,0,3.739,13.642H778.462a59.819,59.819,0,0,1-2.986-11.958q-.755-5.606-.75-20.183V186.244q0-17.938-5.792-25.041t-19.993-7.1h-14.2v112.12H693.629Zm56.058,112.118q12.334,0,18.5-6.351t6.165-21.3V68.9q0-14.2-5.046-20.556t-15.882-6.355H734.737v74.746Z" transform="translate(0 0.805)" fill="#f0eeea"/>
    <path id="Path_2" data-name="Path 2" d="M427.789,18.432V2.665h-5.31V0h13.68V2.665h-5.333V18.432ZM440.124,7.072V18.432H437.6V0h2.967l4.058,11.013L448.7,0h2.923V18.432H448.75V7.095l-2.877,7.813h-2.829Z" transform="translate(389.375)" fill="#f0eeea"/>
  </g>
</svg>
