<svg xmlns="http://www.w3.org/2000/svg" xmlns:xlink="http://www.w3.org/1999/xlink" width="698.172" height="224.781" viewBox="0 0 698.172 224.781">
  <defs>
    <clipPath id="clip-path">
      <rect id="Rectangle_1" data-name="Rectangle 1" width="698.172" height="224.781" fill="none"/>
    </clipPath>
  </defs>
  <g id="Group_1" data-name="Group 1" clip-path="url(#clip-path)">
    <path id="Path_1" data-name="Path 1" d="M12.721,210.143Q-.007,196.029,0,169.658V157.246H32.266v14.892q0,21.1,17.684,21.1,8.684,0,13.187-5.121t4.5-16.6a46.034,46.034,0,0,0-6.206-24.044Q55.22,137.082,38.47,122.5,17.367,103.879,9,88.832T.619,54.859q0-25.75,13.032-39.866T51.5.873q24.5,0,37.076,14.12T101.145,55.48v9H68.877V53.309q0-11.168-4.344-16.291T51.813,31.9q-17.069,0-17.065,20.787a41,41,0,0,0,6.36,22.031q6.356,10.235,23.114,24.82Q85.63,118.154,93.7,133.355t8.066,35.68q0,26.686-13.187,40.956T50.26,224.261q-24.822,0-37.539-14.118M116.656,3.977h34.128V190.135h56.157v31.024H116.656Zm102.075,0h93.077V35H252.857V92.4h46.852v31.028H252.857v66.705h58.951v31.024H218.73Zm107.966,0H369.51l33.2,130h.622v-130h30.4V221.158H398.677L357.721,62.619H357.1v158.54H326.7Zm127.823,0h52.125q25.434,0,38.161,13.651t12.721,40.024V167.485q0,26.37-12.721,40.024t-38.161,13.649H454.519Zm51.5,186.157q8.378,0,12.876-4.966t4.5-16.133V56.1q0-11.17-4.5-16.133T506.021,35H488.647V190.135ZM575.829,3.977H626.4q26.368,0,38.47,12.253t12.1,37.7V67.269q0,33.824-22.34,42.816v.621a26.649,26.649,0,0,1,17.529,15.2q5.123,11.484,5.121,30.716v38.164a145.554,145.554,0,0,0,.619,15.045,37.594,37.594,0,0,0,3.1,11.325H646.255a49.659,49.659,0,0,1-2.479-9.927,148.192,148.192,0,0,1-.622-16.755V154.763q0-14.891-4.808-20.788t-16.6-5.895H609.956v93.079H575.829Zm46.538,93.077q10.239,0,15.359-5.272T642.844,74.1V57.343q0-11.79-4.189-17.065T625.47,35H609.956V97.055Z" transform="translate(0 0.52)"/>
    <path id="Path_2" data-name="Path 2" d="M426.887,15.3V2.213h-4.408V0h11.357V2.213h-4.427V15.3Zm10.24-9.431V15.3h-2.1V0h2.463l3.369,9.143L444.248,0h2.426V15.3h-2.387V5.89L441.9,12.376h-2.348Z" transform="translate(251.497)"/>
  </g>
</svg>
